{
  "asset": {
    "generator": "Khronos glTF Blender I/O v1.4.40",
    "version": "2.0"
  },
  "scene": 0,
  "nodes": [{ "mesh": 0 }],
  "scenes": [{ "nodes": [0] }],
  "samplers": [{ "magFilter": 9729, "minFilter": 9986 }],
  "textures" : [
    { "sampler": 0, "source": 1 },
    { "sampler": 0, "source": 2 },
    { "sampler": 0, "source": 0 }
  ],
  "images": [
    { "uri": "bowl_base.jpg" },
    { "uri": "bowl_normal.png" },
    { "uri": "bowl_metallic.png" }
  ],
  "materials": [
    {
      "normalTexture": { "index": 0, "texCoord": 0 },
      "occlusionTexture": { "index": 1, "texCoord": 0 },
      "pbrMetallicRoughness": {
        "baseColorTexture": { "index": 2, "texCoord": 0 },
        "metallicRoughnessTexture": { "index": 1, "texCoord": 0 }
      }
    }
  ],
  "meshes": [
    {
      "name": "bowl",
      "primitives": [
        {
          "indices": 3, "material": 0,
          "attributes": { "POSITION": 0, "NORMAL": 1, "TEXCOORD_0": 2 }
        }
      ]
    }
  ],
  "accessors": [
    {
      "bufferView": 0, "componentType": 5126, "type": "VEC3", "count": 71214,
      "max": [7.2, 2.7, 7.2], "min": [-7.2, 0, -7]
    },
    { "bufferView": 1, "componentType": 5126, "type": "VEC3", "count": 71214 },
    { "bufferView": 2, "componentType": 5126, "type": "VEC2", "count": 71214 },
    { "bufferView": 3, "componentType": 5125, "type": "SCALAR", "count": 94080 }
  ],
  "bufferViews": [
    { "buffer": 0, "byteLength": 854568, "byteOffset": 0 },
    { "buffer": 0, "byteLength": 854568, "byteOffset": 854568 },
    { "buffer": 0, "byteLength": 569712, "byteOffset": 1709136 },
    { "buffer": 0, "byteLength": 376320, "byteOffset": 2278848 }
  ],
  "buffers": [{ "uri": "bowl.bin", "byteLength": 2655168 }]
}
