{
  "asset": {
    "generator" : "Khronos glTF Blender I/O v1.4.40",
    "version" : "2.0"
  },
  "scene": 0,
  "scenes": [{ "nodes": [0] }],
  "nodes": [{ "mesh": 0, "scale": [0.5, 0.5, 0.5] }],
  "materials": [
    {
      "pbrMetallicRoughness": {
        "metallicFactor": 0.1,
        "roughnessFactor": 0.4,
        "baseColorFactor": [0.9, 0.9, 0.8, 1]
      }
    }
  ],
  "meshes": [
    {
      "name": "dice",
      "primitives": [
        {
          "indices": 3, "material": 0,
          "attributes": { "POSITION": 0, "NORMAL": 1, "TEXCOORD_0": 2 }
        }
      ]
    }
  ],
  "accessors": [
    {
      "bufferView": 0, "componentType": 5126, "type": "VEC3", "count": 244,
      "max": [1, 1, 1], "min": [-1, -1, -1]
    },
    { "bufferView": 1, "componentType": 5126, "type": "VEC3", "count": 244 },
    { "bufferView": 2, "componentType": 5126, "type": "VEC2", "count": 244 },
    { "bufferView": 3, "componentType": 5123, "type": "SCALAR", "count": 852 }
  ],
  "bufferViews": [
    { "buffer": 0, "byteLength": 2928, "byteOffset": 0 },
    { "buffer": 0, "byteLength": 2928, "byteOffset": 2928 },
    { "buffer": 0, "byteLength": 1952, "byteOffset": 5856 },
    { "buffer": 0, "byteLength": 1704, "byteOffset": 7808 }
  ],
  "buffers": [
    {
      "byteLength": 9512,
      "uri": "data:application/octet-stream;base64,"
    }
  ]
}
